<svg width="329" height="81" viewBox="0 0 329 81" fill="none" xmlns="http://www.w3.org/2000/svg">
<path fill-rule="evenodd" clip-rule="evenodd" d="M147.344 18.9047C146.183 17.7211 144.651 17.1334 143.127 17.1334C141.603 17.1334 140.072 17.7211 138.911 18.9047C137.742 20.0801 137.169 21.631 137.169 23.1737C137.169 24.7164 137.75 26.2673 138.911 27.4428C140.072 28.6182 141.603 29.2141 143.127 29.2141C144.651 29.2141 146.183 28.6263 147.344 27.4428C148.505 26.2592 149.093 24.7164 149.093 23.1737C149.093 21.631 148.513 20.0801 147.344 18.9047ZM146.11 20.1535C145.812 19.8515 145.425 19.7046 145.03 19.7046C144.635 19.7046 144.248 19.8515 143.95 20.1535C143.651 20.4556 143.506 20.8474 143.506 21.2473C143.506 21.6473 143.651 22.0391 143.95 22.3411C144.248 22.6431 144.635 22.7901 145.03 22.7901C145.425 22.7901 145.812 22.6431 146.11 22.3411C146.409 22.0391 146.554 21.6473 146.554 21.2473C146.554 20.8474 146.409 20.4556 146.11 20.1535ZM160.106 18.9047C158.945 17.7211 157.413 17.1334 155.89 17.1334C154.366 17.1334 152.834 17.7211 151.673 18.9047C150.504 20.0801 149.924 21.631 149.924 23.1737C149.924 24.7164 150.504 26.2673 151.673 27.4428C152.834 28.6182 154.366 29.2141 155.89 29.2141C157.413 29.2141 158.937 28.6263 160.106 27.4428C161.275 26.2592 161.856 24.7164 161.856 23.1737C161.856 21.631 161.275 20.0801 160.106 18.9047ZM158.873 20.1535C158.574 19.8515 158.187 19.7046 157.792 19.7046C157.397 19.7046 157.01 19.8515 156.712 20.1535C156.414 20.4556 156.269 20.8474 156.269 21.2473C156.269 21.6473 156.414 22.0391 156.712 22.3411C157.01 22.6431 157.397 22.7901 157.792 22.7901C158.187 22.7901 158.574 22.6431 158.873 22.3411C159.171 22.0391 159.316 21.6473 159.316 21.2473C159.316 20.8474 159.171 20.4556 158.873 20.1535ZM172.868 18.9047C171.708 17.7211 170.176 17.1334 168.652 17.1334C167.128 17.1334 165.605 17.7211 164.444 18.9047C163.275 20.0801 162.694 21.631 162.694 23.1737C162.694 24.7164 163.275 26.2673 164.444 27.4428C165.605 28.6182 167.136 29.2141 168.652 29.2141C170.168 29.2141 171.708 28.6263 172.868 27.4428C174.038 26.2592 174.61 24.7164 174.618 23.1737C174.618 21.631 174.038 20.0801 172.868 18.9047ZM171.635 20.1535C171.337 19.8515 170.95 19.7046 170.555 19.7046C170.16 19.7046 169.773 19.8515 169.474 20.1535C169.176 20.4556 169.031 20.8474 169.031 21.2473C169.031 21.6473 169.176 22.0391 169.474 22.3411C169.773 22.6431 170.16 22.7901 170.555 22.7901C170.95 22.7901 171.337 22.6431 171.635 22.3411C171.933 22.0391 172.078 21.6473 172.078 21.2473C172.078 20.8474 171.933 20.4556 171.635 20.1535ZM185.639 18.9047C184.478 17.7211 182.946 17.1334 181.422 17.1334C179.899 17.1334 178.375 17.7211 177.206 18.9047C176.045 20.0801 175.456 21.631 175.456 23.1737C175.456 24.7164 176.037 26.2673 177.206 27.4428C178.367 28.6182 179.899 29.2141 181.422 29.2141C182.946 29.2141 184.478 28.6263 185.639 27.4428C186.8 26.2592 187.388 24.7164 187.388 23.1737C187.388 21.631 186.808 20.0801 185.639 18.9047ZM184.405 20.1535C184.107 19.8515 183.72 19.7046 183.333 19.7046C182.946 19.7046 182.551 19.8515 182.253 20.1535C181.955 20.4556 181.809 20.8474 181.809 21.2473C181.809 21.6473 181.963 22.0391 182.253 22.3411C182.551 22.6431 182.938 22.7901 183.333 22.7901C183.728 22.7901 184.115 22.6431 184.405 22.3411C184.704 22.0391 184.849 21.6473 184.849 21.2473C184.849 20.8474 184.704 20.4556 184.405 20.1535ZM153.729 30.2752C152.56 29.0998 151.036 28.5039 149.512 28.5039C147.989 28.5039 146.465 29.0916 145.296 30.2752C144.135 31.4588 143.546 33.0015 143.546 34.5442C143.546 36.087 144.127 37.6379 145.296 38.8133C146.457 39.9969 147.989 40.5846 149.512 40.5846C151.036 40.5846 152.56 39.9969 153.729 38.8133C154.89 37.6379 155.478 36.087 155.478 34.5442C155.478 33.0015 154.898 31.4506 153.729 30.2752ZM152.495 31.5241C152.197 31.2221 151.81 31.0751 151.415 31.0751C151.02 31.0751 150.633 31.2221 150.335 31.5241C150.036 31.8261 149.891 32.2179 149.891 32.6097C149.891 33.0015 150.045 33.4015 150.335 33.7035C150.633 34.0055 151.02 34.1524 151.415 34.1524C151.81 34.1524 152.197 34.0055 152.495 33.7035C152.794 33.4015 152.947 33.0097 152.947 32.6097C152.947 32.2097 152.794 31.8179 152.495 31.5241ZM166.491 30.2752C165.33 29.0998 163.799 28.5039 162.275 28.5039C160.751 28.5039 159.227 29.0916 158.058 30.2752C156.897 31.4588 156.309 33.0015 156.309 34.5442C156.309 36.087 156.889 37.6379 158.058 38.8133C159.227 39.9969 160.751 40.5846 162.275 40.5846C163.799 40.5846 165.322 39.9969 166.491 38.8133C167.66 37.6379 168.241 36.087 168.241 34.5442C168.241 33.0015 167.66 31.4506 166.491 30.2752ZM165.258 31.5241C164.96 31.2221 164.573 31.0751 164.177 31.0751C163.782 31.0751 163.395 31.2221 163.097 31.5241C162.799 31.8261 162.654 32.2179 162.654 32.6097C162.654 33.0015 162.799 33.4015 163.097 33.7035C163.395 34.0055 163.782 34.1524 164.177 34.1524C164.573 34.1524 164.96 34.0055 165.258 33.7035C165.556 33.4015 165.701 33.0097 165.701 32.6097C165.701 32.2097 165.556 31.8179 165.258 31.5241ZM179.254 30.2752C178.093 29.0998 176.561 28.5039 175.037 28.5039C173.513 28.5039 171.982 29.0916 170.821 30.2752C169.66 31.4588 169.079 33.0015 169.079 34.5442C169.079 36.087 169.66 37.6379 170.821 38.8133C171.982 39.9969 173.513 40.5846 175.037 40.5846C176.561 40.5846 178.085 39.9969 179.254 38.8133C180.415 37.6379 181.003 36.087 181.003 34.5442C181.003 33.0015 180.423 31.4506 179.254 30.2752ZM178.02 31.5241C177.722 31.2221 177.335 31.0751 176.94 31.0751C176.545 31.0751 176.158 31.2221 175.86 31.5241C175.561 31.8261 175.416 32.2179 175.416 32.6097C175.416 33.0015 175.561 33.4015 175.86 33.7035C176.158 34.0055 176.545 34.1524 176.94 34.1524C177.335 34.1524 177.722 34.0055 178.02 33.7035C178.319 33.4015 178.464 33.0097 178.464 32.6097C178.464 32.2097 178.319 31.8179 178.02 31.5241ZM160.106 41.76C158.945 40.5764 157.413 39.9887 155.89 39.9887C154.366 39.9887 152.834 40.5764 151.673 41.76C150.504 42.9354 149.924 44.4863 149.924 46.0291C149.924 47.5718 150.504 49.1227 151.673 50.2981C152.834 51.4817 154.366 52.0694 155.89 52.0694C157.413 52.0694 158.937 51.4817 160.106 50.2981C161.275 49.1145 161.856 47.5718 161.856 46.0291C161.856 44.4863 161.275 42.9354 160.106 41.76ZM158.873 43.0089C158.574 42.7069 158.187 42.56 157.792 42.56C157.397 42.56 157.01 42.7069 156.712 43.0089C156.414 43.3109 156.269 43.7027 156.269 44.1027C156.269 44.5027 156.414 44.8945 156.712 45.1965C157.01 45.4985 157.397 45.6454 157.792 45.6454C158.187 45.6454 158.574 45.4903 158.873 45.1965C159.171 44.8945 159.316 44.5027 159.316 44.1027C159.316 43.7027 159.171 43.3109 158.873 43.0089ZM172.868 41.76C171.708 40.5764 170.176 39.9887 168.652 39.9887C167.128 39.9887 165.605 40.5764 164.444 41.76C163.275 42.9354 162.694 44.4863 162.694 46.0291C162.694 47.5718 163.275 49.1227 164.444 50.2981C165.605 51.4817 167.136 52.0694 168.652 52.0694C170.168 52.0694 171.708 51.4817 172.868 50.2981C174.038 49.1145 174.61 47.5718 174.618 46.0291C174.618 44.4863 174.038 42.9354 172.868 41.76ZM171.635 43.0089C171.337 42.7069 170.95 42.56 170.555 42.56C170.16 42.56 169.773 42.7069 169.474 43.0089C169.176 43.3109 169.031 43.7027 169.031 44.1027C169.031 44.5027 169.176 44.8945 169.474 45.1965C169.773 45.4985 170.16 45.6454 170.555 45.6454C170.95 45.6454 171.337 45.4903 171.635 45.1965C171.933 44.8945 172.078 44.5027 172.078 44.1027C172.078 43.7027 171.933 43.3109 171.635 43.0089Z" fill="#E40046"/>
<path d="M168.894 5.66486C169.523 5.50161 171.127 7.74633 170.95 8.05651C168.523 8.70952 164.992 12.3092 163.807 15.0111C162.734 17.4435 162.944 18.5292 162.347 18.2924C161.444 17.9333 161.541 16.3987 161.864 14.8641C156.123 13.852 149.222 9.14214 149.222 1.28969C149.222 -0.220395 148.964 -0.0816309 151.141 0.13876C158.268 0.840746 161.348 3.02017 162.194 9.3462C162.21 9.46864 160.904 6.99537 157.889 4.34251C155.349 2.11412 151.851 1.31418 151.496 1.25704C151.27 1.21623 154.487 2.22839 157.196 5.01185C160.493 8.39118 162.299 13.1826 162.299 13.1826L162.42 12.7663C163.412 9.34621 165.806 6.52194 168.902 5.67302" fill="#572B10"/>
<path d="M222.015 42.7885C221.177 43.9966 219.508 45.4495 218.847 45.4495C218.154 45.4495 217.71 44.7965 217.525 43.515C217.38 42.462 217.339 40.8295 217.428 38.6419L217.573 34.8544C217.686 31.8179 217.928 27.7611 218.307 22.6431C217.46 22.3738 216.557 22.2513 215.574 22.2513C213.695 22.2513 212.212 22.8146 211.148 23.9655C210.906 24.194 210.027 26.4877 208.527 30.8629C208.1 32.0873 207.415 33.9157 206.48 36.3727C205.617 38.5276 204.883 39.6051 204.279 39.6051C203.827 39.6051 203.416 38.9847 203.037 37.7277C202.811 36.9686 202.4 35.1809 201.82 32.3567C201.255 29.5895 200.635 26.3082 199.957 22.5289C198.74 22.6023 197.772 22.7574 197.063 23.0023C195.862 23.4104 195.088 23.8267 194.717 24.2512C194.491 24.5042 194.104 25.4593 193.54 27.1244L192.121 31.3445C191.557 33.075 191.057 34.683 190.605 36.1523C188.912 41.7845 188.227 45.7026 188.533 47.8902C188.848 50.1267 189.735 51.245 191.194 51.245C192.653 51.245 193.975 50.3471 194.951 48.5595C194.572 48.4126 194.153 47.8085 193.693 46.7556C193.266 45.7842 192.976 44.8047 192.847 43.8497C192.185 39.1643 192.984 34.3973 195.241 29.5569C196.208 34.5932 197.015 38.3072 197.66 40.6907C199.127 46.2087 200.457 48.9676 201.65 48.9676C202.569 48.9676 203.424 48.3391 204.214 47.0739C205.432 45.1149 206.746 42.1437 208.148 38.1358L211.301 29.5569L210.712 39.0255C210.454 43.2701 210.438 46.1352 210.648 47.6045C210.994 50.0288 212.22 51.2368 214.348 51.2368C216.203 51.2368 217.944 50.4042 219.564 48.7391C220.548 47.6698 222.12 45.2863 222.628 44.168C222.789 43.817 222.435 42.1682 221.999 42.7885" fill="#572B10"/>
<path d="M244.63 41.5233L243.759 44.6986C242.872 47.3106 240.405 51.245 237.446 51.245C235.326 51.245 234.439 49.8329 234.205 48.3636C233.77 45.5883 233.657 41.3846 233.609 38.3807L233.746 33.5974C233.81 31.8833 233.802 30.7976 233.738 30.3405C233.568 29.0998 232.94 28.4794 231.859 28.4794C230.319 28.4794 229.118 30.2915 228.272 33.8994C227.651 36.4543 227.57 39.3031 228.014 42.462C228.401 45.1883 229.344 46.5515 230.86 46.5515C231.819 46.5515 232.536 46.176 233.02 45.4332C233.447 44.8129 233.81 44.3476 233.665 40.9846C233.625 40.0785 234.649 40.0214 234.947 42.1274C235.245 44.2415 234.745 46.2495 233.439 48.1677C232.117 50.0696 230.585 51.0246 228.836 51.0246C227.086 51.0246 225.611 50.3716 224.426 49.0901C222.797 47.3351 222.088 44.7965 221.757 42.4539C221.088 37.6787 221.765 33.5729 223.805 30.1283C225.377 27.402 227.562 26.0388 230.36 26.0388C232.278 26.0388 233.778 26.5449 234.842 27.5407C235.665 26.7979 236.874 26.4225 238.462 26.4225C239.462 26.4225 240.115 26.4714 240.405 26.5694C240.058 29.5324 239.817 33.3525 239.663 38.0297L239.575 41.6703C239.518 43.1314 239.526 44.1354 239.607 44.6904C239.752 45.7352 240.107 46.2658 240.671 46.2658C241.292 46.2658 243.146 44.8292 243.977 41.4009C244.122 40.805 244.622 41.5152 244.622 41.5152" fill="#572B10"/>
<path d="M264.551 44.1435C263.213 47.6126 260.069 51.2368 257.416 51.2368C255.441 51.2368 254.28 50.094 253.958 47.8085C253.796 46.6576 253.732 44.4618 253.772 41.2376L253.901 35.94C253.99 33.7851 253.982 32.3485 253.885 31.6383C253.748 30.6751 253.361 30.1854 252.724 30.1854C251.329 30.1854 250.015 31.9567 248.757 35.4911C247.516 39.0337 247.097 42.2579 247.508 45.1965C247.758 46.9759 248.306 48.2166 249.144 48.9268C248.306 50.4614 247.21 51.2368 245.855 51.2368C242.582 51.2368 243.291 44.8781 243.686 42.764C243.88 41.7029 244.17 40.5927 244.541 39.4418C247.427 30.5119 251.087 26.0469 255.522 26.0469C257.827 26.0469 259.174 27.4264 259.569 30.1854C259.754 31.5159 259.827 32.9933 259.778 34.6095L259.529 41.6702C259.512 43.1313 259.529 44.1027 259.601 44.6006C259.754 45.7025 260.133 46.2658 260.722 46.2658C261.278 46.2658 264.003 44.9679 264.197 40.6336C264.213 40.2173 264.543 44.1353 264.543 44.1353" fill="#572B10"/>
<path d="M308.587 45.1067C307.264 47.882 304.104 51.2368 301.726 51.2368C299.759 51.2368 298.614 50.094 298.291 47.8085C298.13 46.6576 298.058 44.4618 298.098 41.2376L298.138 39.9316H292.591L292.301 49.8981C291.14 50.543 289.133 50.8695 286.271 50.8695L286.617 39.5316C286.722 36.5931 287.166 30.9608 285.4 28.4712C287.029 27.0264 288.609 26.3326 290.1 26.3326C291.495 26.3326 292.309 27.2224 292.567 29.0181C292.801 30.667 292.825 33.6219 292.648 37.8827L298.203 37.6215L298.38 28.4631C298.404 27.8754 298.864 27.353 299.783 26.9203C300.629 26.5204 301.556 26.3245 302.564 26.3245C303.395 26.3245 304.104 26.3979 304.66 26.5612C304.233 31.573 304.007 35.0993 303.967 37.1481L303.838 40.405C303.774 42.2906 303.79 43.6864 303.919 44.5924C304.072 45.6944 304.451 46.2576 305.039 46.2576C305.515 46.2576 307.248 45.8658 307.901 43.6292C308.119 42.8946 308.595 45.0985 308.595 45.0985" fill="#572B10"/>
<path d="M286.835 44.2251C285.497 47.5963 282.127 51.2368 279.305 51.2368C277.322 51.2368 276.185 50.1838 275.887 48.0697C275.806 47.5228 275.766 46.4943 275.742 45.0006C274.29 49.0901 271.952 51.1389 268.735 51.1389C266.22 51.1389 264.721 49.4982 264.261 46.2168C264.14 45.3597 264.1 44.3639 264.124 43.2456L264.285 37.5318C264.366 34.7891 264.446 30.8384 262.971 28.4713C264.6 27.0265 266.18 26.3326 267.671 26.3326C269.066 26.3326 269.888 27.2224 270.138 29.0181C270.308 30.2181 270.332 33.2056 270.203 37.9807C270.243 41.7682 270.291 43.8496 270.348 44.217C270.533 45.5475 271.114 46.2168 272.097 46.2168C273.331 46.2168 274.339 44.7475 275.145 41.8171C275.717 39.5561 276.032 37.2787 276.072 35.0177L276.112 28.4794C276.129 27.8917 276.596 27.3938 277.523 26.9857C278.386 26.553 279.313 26.349 280.289 26.349C281.264 26.349 281.982 26.4224 282.546 26.5857C282.457 27.3285 282.248 30.7405 281.949 36.8135L281.82 39.9969C281.699 42.2987 281.699 43.8415 281.804 44.6169C281.957 45.7189 282.336 46.2821 282.925 46.2821C283.481 46.2821 286.48 44.2904 286.561 41.6702C286.577 41.0335 286.851 44.2333 286.851 44.2333" fill="#572B10"/>
<path d="M329 44.6904C328.113 47.3024 325.646 51.2368 322.687 51.2368C320.567 51.2368 319.68 49.8247 319.446 48.3554C319.011 45.5883 318.898 41.3764 318.85 38.3644L318.987 33.5811C319.051 31.8669 319.043 30.7813 318.979 30.3242C318.801 29.0834 318.181 28.4631 317.1 28.4631C315.56 28.4631 314.359 30.2752 313.513 33.8831C312.892 36.438 312.811 39.2867 313.255 42.4457C313.642 45.172 314.585 46.5351 316.101 46.5351C317.06 46.5351 317.778 46.1597 318.261 45.4169C318.689 44.7965 319.051 44.3312 318.906 40.9682C318.866 40.0622 319.89 40.005 320.188 42.111C320.478 44.2251 319.987 46.2331 318.68 48.1514C317.358 50.0532 315.826 51.0083 314.077 51.0083C312.328 51.0083 310.852 50.3553 309.667 49.0737C308.038 47.3188 307.329 44.7802 306.998 42.4375C306.329 37.6624 307.006 33.5566 309.046 30.1119C310.626 27.3856 312.803 26.0225 315.601 26.0225C317.52 26.0225 319.019 26.5285 320.083 27.5244C320.906 26.7816 322.115 26.4061 323.703 26.4061C324.703 26.4061 325.356 26.4551 325.646 26.553C325.299 29.5161 325.058 33.3362 324.913 38.0134L324.824 41.6539C324.767 43.115 324.775 44.119 324.856 44.6741C325.001 45.7189 325.356 46.2495 325.92 46.2495C326.34 46.2495 327.323 45.5964 328.17 44.119C328.581 43.4089 329 44.6741 329 44.6741" fill="#572B10"/>
<path d="M29.6284 44.2088C28.0724 47.9473 25.0894 51.2532 22.2677 51.2532C20.7117 51.2532 19.462 50.0451 18.5188 47.629C17.7206 45.5801 17.0192 43.6864 16.4226 41.9559C15.4149 39.0745 14.5441 37.6379 13.8185 37.6379H13.2864L12.835 49.7023C11.4644 50.4532 9.11831 50.8369 5.78865 50.8369L6.16757 37.6379C6.31269 33.3689 6.32881 30.8303 6.21594 29.9977C6.03051 28.6998 5.65159 28.0631 5.06305 28.0631C4.5632 28.0631 4.00691 28.2346 3.46675 28.9284C2.92659 29.614 2.45898 32.0383 2.42673 33.3362C2.20905 33.5484 -0.0160981 32.6179 2.61652e-05 32.0383C0.120958 28.0223 6.12726 22.284 10.2712 22.284C11.7385 22.284 12.6576 23.6064 13.0285 26.2592C13.359 28.5937 13.4477 31.5323 13.2864 35.0912H13.875C15.1649 35.0912 16.2372 33.679 16.8418 30.8874C18.8493 21.6555 23.3641 21.8432 23.5173 21.9085C25.5973 22.7738 26.6051 25.6062 26.4036 25.7694C26.0166 26.0878 22.8723 25.1328 20.8729 30.2507C20.8729 30.2507 19.454 34.5524 17.1401 35.6544C19.4137 36.2176 21.2518 37.9318 22.6305 40.7724L23.1706 41.907C23.4609 42.5518 23.735 43.0824 23.9607 43.4824C24.3316 44.1517 24.6783 44.6578 25.0007 44.9924C26.1778 46.2087 27.8467 45.0741 29.1124 42.2824L29.6203 44.217L29.6284 44.2088ZM51.8799 41.5233L51.0092 44.6986C50.1224 47.3106 47.6554 51.245 44.6966 51.245C42.5762 51.245 41.6894 49.8329 41.4556 48.3636C41.0202 45.5965 40.9074 41.3846 40.859 38.3725L40.996 33.5892C41.0605 31.8751 41.0525 30.7895 40.988 30.3324C40.8106 29.0916 40.1898 28.4713 39.1095 28.4713C37.5696 28.4713 36.3684 30.2834 35.5218 33.8913C34.9011 36.4462 34.8204 39.2949 35.2639 42.4539C35.6508 45.1802 36.5941 46.5433 38.1098 46.5433C39.0692 46.5433 39.7867 46.1679 40.2704 45.4251C40.6977 44.8047 41.0605 44.3394 40.9154 40.9764C40.8751 40.0704 41.899 40.0132 42.1973 42.1192C42.4875 44.2333 41.9957 46.2413 40.6897 48.1595C39.3675 50.0614 37.8357 51.0165 36.0862 51.0165C34.3367 51.0165 32.8613 50.3634 31.6762 49.0819C30.0476 47.327 29.3382 44.7884 29.0076 42.4457C28.3385 37.6706 29.0157 33.5648 31.0554 30.1201C32.6275 27.3938 34.8124 26.0307 37.6099 26.0307C39.5287 26.0307 41.0283 26.5367 42.0925 27.5326C42.9148 26.7898 44.1241 26.4143 45.7124 26.4143C46.7121 26.4143 47.3651 26.4633 47.6554 26.5612C47.3087 29.5243 47.0668 33.3444 46.9137 38.0216L46.825 41.6621C46.7685 43.1232 46.7847 44.1272 46.8572 44.6823C47.0023 45.7271 47.3571 46.2576 47.9214 46.2576C48.5422 46.2576 50.3965 44.821 51.2269 41.3927C51.372 40.7968 51.8719 41.507 51.8719 41.507M71.7854 44.1272C70.4471 47.5963 67.3028 51.2205 64.6504 51.2205C62.6751 51.2205 61.5142 50.0778 61.1917 47.7922C61.0305 46.6413 60.966 44.4455 61.0063 41.2213L61.1433 35.9238C61.232 33.7688 61.224 32.3322 61.1191 31.6221C60.9821 30.6589 60.5951 30.1691 59.9582 30.1691C58.5635 30.1691 57.2493 31.9404 55.9997 35.4748C54.7581 39.0092 54.3389 42.2416 54.7501 45.1802C55 46.9596 55.5482 48.2003 56.3867 48.9105C55.5482 50.4451 54.4518 51.2205 53.0973 51.2205C49.8241 51.2205 50.5336 44.8618 50.9286 42.7477C51.1221 41.6866 51.4123 40.5765 51.7751 39.4255C54.6614 30.4956 58.3216 26.0307 62.7558 26.0307C65.0615 26.0307 66.4079 27.4101 66.803 30.1691C66.9884 31.4996 67.061 32.9771 67.0126 34.5933L66.7626 41.6539C66.7465 43.115 66.7627 44.0864 66.8352 44.5843C66.9884 45.6863 67.3673 46.2495 67.9558 46.2495C68.5121 46.2495 71.2371 44.9516 71.4306 40.6173C71.4468 40.201 71.7773 44.119 71.7773 44.119M115.821 45.0822C114.499 47.8575 111.338 51.2124 108.96 51.2124C106.993 51.2124 105.848 50.0696 105.525 47.7841C105.364 46.6331 105.3 44.4374 105.332 41.2131L105.372 39.9071H99.8255L99.5353 49.8737C98.3743 50.5185 96.3669 50.845 93.5048 50.845L93.8515 39.5072C93.9563 36.5686 94.4078 30.9364 92.6341 28.4468C94.2626 27.002 95.8428 26.3082 97.3343 26.3082C98.7291 26.3082 99.5433 27.1979 99.8013 28.9937C100.035 30.6425 100.059 33.5974 99.882 37.8583L105.437 37.5971L105.614 28.4386C105.638 27.8509 106.098 27.3285 107.017 26.8959C107.863 26.4959 108.791 26.3 109.798 26.3C110.637 26.3 111.338 26.3735 111.895 26.5367C111.467 31.5486 111.242 35.0748 111.201 37.1237L111.072 40.3806C111 42.2661 111.024 43.6619 111.153 44.568C111.306 45.6699 111.685 46.2332 112.273 46.2332C112.749 46.2332 114.482 45.8414 115.136 43.5966C115.353 42.862 115.829 45.0659 115.829 45.0659M94.0772 44.1843C92.7389 47.5555 89.3689 51.196 86.5472 51.196C84.5639 51.196 83.4271 50.1431 83.1288 48.0289C83.0482 47.482 83.0079 46.4536 82.9837 44.9598C81.5325 49.0493 79.1945 51.0981 75.9777 51.0981C73.4623 51.0981 71.9627 49.4574 71.5032 46.176C71.3823 45.3189 71.3419 44.3231 71.3742 43.2048L71.5354 37.491C71.6161 34.7483 71.6967 30.7976 70.2213 28.4305C71.8499 26.9857 73.43 26.2919 74.9215 26.2919C76.3163 26.2919 77.1386 27.1816 77.3886 28.9774C77.5579 30.1773 77.5821 33.1648 77.4531 37.9399C77.4934 41.7355 77.5417 43.8089 77.5982 44.1762C77.7836 45.5067 78.3641 46.176 79.3477 46.176C80.5812 46.176 81.597 44.7067 82.3951 41.7764C82.9676 39.5153 83.282 37.2379 83.3223 34.9769L83.3626 28.4386C83.3787 27.8509 83.8463 27.353 84.7735 26.9449C85.6361 26.5122 86.5633 26.3082 87.5388 26.3082C88.5143 26.3082 89.2318 26.3816 89.7962 26.5449C89.7075 27.2877 89.4979 30.6997 89.1996 36.7727L89.0706 39.9561C88.9497 42.258 88.9497 43.7925 89.0545 44.5761C89.2077 45.6781 89.5866 46.2413 90.1751 46.2413C90.7314 46.2413 93.7305 44.2496 93.8111 41.6294C93.8273 40.9928 94.1014 44.1925 94.1014 44.1925M136.266 44.6578C135.38 47.2698 132.913 51.2042 129.954 51.2042C127.833 51.2042 126.947 49.7921 126.713 48.3228C126.277 45.5557 126.165 41.3437 126.116 38.3317L126.253 33.5484C126.318 31.8343 126.31 30.7487 126.245 30.2915C126.068 29.0508 125.447 28.4305 124.367 28.4305C122.827 28.4305 121.626 30.2426 120.779 33.8505C120.166 36.4054 120.078 39.2541 120.521 42.413C120.908 45.1394 121.851 46.5025 123.367 46.5025C124.326 46.5025 125.044 46.127 125.528 45.3842C125.955 44.7639 126.318 44.2986 126.173 40.9356C126.132 40.0296 127.156 39.9724 127.454 42.0784C127.745 44.1925 127.253 46.2005 125.947 48.1187C124.625 50.0206 123.093 50.9756 121.343 50.9756C119.594 50.9756 118.119 50.3226 116.933 49.0411C115.305 47.2861 114.595 44.7476 114.265 42.4049C113.596 37.6297 114.273 33.5239 116.313 30.0793C117.893 27.353 120.07 25.9898 122.867 25.9898C124.786 25.9898 126.285 26.4959 127.35 27.4918C128.172 26.749 129.381 26.3735 130.97 26.3735C131.969 26.3735 132.622 26.4225 132.913 26.5204C132.566 29.4834 132.324 33.3036 132.179 37.9807L132.09 41.6213C132.034 43.0824 132.042 44.0864 132.122 44.6414C132.268 45.6863 132.622 46.2168 133.187 46.2168C133.606 46.2168 134.589 45.5638 135.436 44.0864C135.847 43.3762 136.266 44.6414 136.266 44.6414" fill="#572B10"/>
<path d="M47.1797 74.3697V72.5168C47.6634 72.5168 48.002 72.2882 48.1794 71.8393C48.3648 71.3904 48.5019 70.6802 48.5906 69.7089C48.7518 67.66 48.8486 65.6684 48.8889 63.7256H54.9355V74.231H53.0489V65.4969H50.727C50.7028 66.9989 50.6142 68.5089 50.469 70.019C50.34 71.4965 50.0095 72.5903 49.4855 73.3004C48.9614 74.0106 48.1955 74.3697 47.1797 74.3697Z" fill="#572B10"/>
<path d="M60.6274 74.4677C59.4987 74.4677 58.6118 74.1248 57.9588 73.431C57.3058 72.7372 56.9833 71.7577 56.9833 70.4843V67.456C56.9833 66.1826 57.3058 65.1949 57.9588 64.5092C58.6118 63.8154 59.4987 63.4726 60.6274 63.4726C61.7561 63.4726 62.6671 63.8154 63.3121 64.5092C63.9651 65.2031 64.2876 66.1826 64.2876 67.456V70.4843C64.2876 71.7577 63.9651 72.7453 63.3121 73.431C62.659 74.1248 61.7641 74.4677 60.6274 74.4677ZM60.6274 72.5903C61.7802 72.5903 62.3607 71.8883 62.3607 70.4761V67.4478C62.3607 66.0357 61.7802 65.3337 60.6274 65.3337C59.4745 65.3337 58.9182 66.0357 58.9182 67.4478V70.4761C58.9182 71.8883 59.4906 72.5903 60.6274 72.5903Z" fill="#572B10"/>
<path d="M71.7289 74.2309L68.9152 69.7252L68.2299 70.4761V74.2309H66.3353V63.7175H68.2299V68.1906L69.4473 66.256L71.1645 63.7175H73.422L70.1568 68.2069L73.9137 74.2309H71.7289Z" fill="#572B10"/>
<path d="M77.9529 63.4644C79.0574 63.4644 79.8959 63.7909 80.4602 64.4439C81.0326 65.0969 81.3148 66.0356 81.3148 67.2519V74.2309H79.7588L79.6217 73.2514C79.138 74.0758 78.3721 74.4921 77.316 74.4921C76.3566 74.4921 75.5907 74.1983 75.0021 73.6024C74.4136 73.0147 74.1234 72.2229 74.1234 71.2434C74.1234 70.1904 74.462 69.3905 75.1231 68.8273C75.7922 68.2722 76.7113 67.9865 77.8803 67.9865H79.396V67.2519C79.396 65.9622 78.8961 65.3173 77.8964 65.3173C77.4611 65.3173 77.1063 65.4398 76.8242 65.6765C76.542 65.9132 76.3727 66.2642 76.3243 66.7131H74.4136C74.47 65.701 74.8086 64.9092 75.4375 64.3297C76.0663 63.7501 76.9048 63.4644 77.9367 63.4644M79.396 71.0965V69.6598H77.8803C76.6549 69.6598 76.0502 70.1823 76.0502 71.2352C76.0502 71.7168 76.1953 72.0923 76.4856 72.3617C76.7758 72.6311 77.1789 72.7698 77.711 72.7698C78.2431 72.7698 78.6301 72.6147 78.9445 72.3127C79.2509 72.0025 79.4041 71.6026 79.4041 71.0965" fill="#572B10"/>
<path d="M82.4596 74.3697V72.5168C82.9433 72.5168 83.2819 72.2882 83.4674 71.8393C83.6528 71.3904 83.7898 70.6802 83.8785 69.7089C84.0398 67.66 84.1365 65.6684 84.1768 63.7256H90.2234V74.231H88.3369V65.4969H86.015C85.9908 66.9989 85.9021 68.5089 85.757 70.019C85.628 71.4965 85.2975 72.5903 84.7734 73.3004C84.2494 74.0106 83.4835 74.3697 82.4677 74.3697" fill="#572B10"/>
<path d="M96.0524 67.2682C97.0521 67.2682 97.8745 67.5866 98.5114 68.2232C99.1563 68.8599 99.4788 69.6925 99.4788 70.7128C99.4788 71.7332 99.1563 72.5902 98.5114 73.2433C97.8664 73.8963 97.0441 74.2228 96.0524 74.2228H92.5051V63.7175H94.4158V67.2682H96.0524ZM95.8589 72.4678C96.3668 72.4678 96.778 72.3127 97.0924 71.9862C97.3988 71.6679 97.552 71.2434 97.552 70.7128C97.552 70.1823 97.3988 69.7823 97.0924 69.4803C96.7861 69.1701 96.3749 69.0232 95.8589 69.0232H94.4239V72.476H95.8589V72.4678Z" fill="#572B10"/>
<path d="M105.654 63.7175H107.565V74.2309H105.654V69.7415H102.76V74.2309H100.857V63.7175H102.76V67.9457H105.654V63.7175Z" fill="#572B10"/>
<path d="M113.257 74.4677C112.128 74.4677 111.241 74.1248 110.588 73.431C109.935 72.7372 109.613 71.7577 109.613 70.4843V67.456C109.613 66.1826 109.935 65.1949 110.588 64.5092C111.241 63.8154 112.128 63.4726 113.257 63.4726C114.386 63.4726 115.297 63.8154 115.942 64.5092C116.595 65.2031 116.917 66.1826 116.917 67.456V70.4843C116.917 71.7577 116.595 72.7453 115.942 73.431C115.289 74.1248 114.394 74.4677 113.257 74.4677ZM113.257 72.5903C114.41 72.5903 114.99 71.8883 114.99 70.4761V67.4478C114.99 66.0357 114.41 65.3337 113.257 65.3337C112.104 65.3337 111.548 66.0357 111.548 67.4478V70.4761C111.548 71.8883 112.12 72.5903 113.257 72.5903Z" fill="#572B10"/>
<path d="M136.887 68.6477C137.435 68.8599 137.855 69.1946 138.137 69.6517C138.419 70.1088 138.564 70.6149 138.564 71.1781C138.564 72.1495 138.258 72.9004 137.645 73.431C137.032 73.9616 136.129 74.231 134.936 74.231H131.671V63.7256H134.783C135.823 63.7256 136.621 63.9787 137.185 64.4929C137.75 65.0072 138.032 65.7173 138.032 66.6315C138.032 67.4723 137.653 68.1416 136.887 68.6477ZM133.517 65.3419V68.0355H134.678C135.662 68.0355 136.154 67.5866 136.154 66.6805C136.154 66.2642 136.024 65.9459 135.767 65.701C135.509 65.4643 135.138 65.3419 134.654 65.3419H133.509H133.517ZM135.017 72.5984C136.121 72.5984 136.669 72.1087 136.669 71.121C136.669 70.1333 136.121 69.668 135.017 69.668H133.517V72.5984H135.017Z" fill="#572B10"/>
<path d="M145.53 74.2309L142.716 69.7252L142.023 70.4761V74.2309H140.136V63.7175H142.023V68.1906L143.248 66.256L144.957 63.7175H147.223L143.958 68.2069L147.715 74.2309H145.53Z" fill="#572B10"/>
<path d="M153.842 63.7175H155.809L152.479 75.0391C152.205 75.9941 151.851 76.7287 151.423 77.243C150.996 77.7572 150.424 78.0103 149.698 78.0103H148.674V76.1329H149.327C149.698 76.1329 149.972 76.0186 150.157 75.7819C150.343 75.5452 150.504 75.186 150.649 74.6962L151.101 73.1209L147.755 63.7094H149.762L151.907 70.37L153.834 63.7094L153.842 63.7175Z" fill="#572B10"/>
<path d="M160.3 74.4431C159.211 74.4431 158.357 74.1085 157.728 73.4391C157.107 72.7698 156.793 71.8229 156.793 70.5986V67.2927C156.793 66.0846 157.107 65.1459 157.728 64.4684C158.349 63.7991 159.203 63.4644 160.3 63.4644C161.396 63.4644 162.283 63.7991 162.912 64.4603C163.533 65.1214 163.863 66.0683 163.903 67.2927H161.977C161.936 65.9785 161.388 65.3173 160.324 65.3173C159.26 65.3173 158.728 65.9785 158.728 67.2927V70.5986C158.728 71.9291 159.26 72.5902 160.324 72.5902C161.388 72.5902 161.985 71.9291 162.033 70.5986H163.944C163.92 71.8229 163.581 72.7698 162.944 73.4391C162.299 74.1085 161.42 74.4431 160.308 74.4431" fill="#572B10"/>
<path d="M170.434 63.7175H172.344V74.2309H170.434V69.7415H167.539V74.2309H165.629V63.7175H167.539V67.9457H170.434V63.7175Z" fill="#572B10"/>
<path d="M178.036 74.4677C176.908 74.4677 176.021 74.1248 175.368 73.431C174.715 72.7372 174.392 71.7577 174.392 70.4843V67.456C174.392 66.1826 174.715 65.1949 175.368 64.5092C176.021 63.8154 176.908 63.4726 178.036 63.4726C179.165 63.4726 180.076 63.8154 180.721 64.5092C181.374 65.2031 181.697 66.1826 181.697 67.456V70.4843C181.697 71.7577 181.374 72.7453 180.721 73.431C180.068 74.1248 179.173 74.4677 178.036 74.4677ZM178.036 72.5903C179.189 72.5903 179.77 71.8883 179.77 70.4761V67.4478C179.77 66.0357 179.189 65.3337 178.036 65.3337C176.883 65.3337 176.327 66.0357 176.327 67.4478V70.4761C176.327 71.8883 176.9 72.5903 178.036 72.5903Z" fill="#572B10"/>
<path d="M201.247 63.7175H203.158V74.2309H201.247V69.7415H198.353V74.2309H196.45V63.7175H198.353V67.9457H201.247V63.7175Z" fill="#572B10"/>
<path d="M208.737 63.4644C209.842 63.4644 210.68 63.7909 211.244 64.4439C211.817 65.0969 212.099 66.0356 212.099 67.2519V74.2309H210.543L210.406 73.2514C209.922 74.0758 209.156 74.4921 208.1 74.4921C207.141 74.4921 206.375 74.1983 205.786 73.6024C205.198 73.0147 204.907 72.2229 204.907 71.2434C204.907 70.1904 205.246 69.3905 205.907 68.8273C206.576 68.2722 207.495 67.9865 208.664 67.9865H210.18V67.2519C210.18 65.9622 209.68 65.3173 208.681 65.3173C208.245 65.3173 207.89 65.4398 207.608 65.6765C207.326 65.9132 207.157 66.2642 207.108 66.7131H205.198C205.254 65.701 205.593 64.9092 206.222 64.3297C206.85 63.7501 207.689 63.4644 208.721 63.4644M210.18 71.0965V69.6598H208.664C207.439 69.6598 206.834 70.1823 206.834 71.2352C206.834 71.7168 206.979 72.0923 207.27 72.3617C207.56 72.6311 207.963 72.7698 208.495 72.7698C209.027 72.7698 209.414 72.6147 209.729 72.3127C210.035 72.0025 210.188 71.6026 210.188 71.0965" fill="#572B10"/>
<path d="M219.798 63.7175V65.5377H217.42V74.2309H215.525V65.5377H213.163V63.7175H219.798Z" fill="#572B10"/>
<path d="M226.28 63.7175H228.247L224.918 75.0391C224.644 75.9941 224.289 76.7287 223.862 77.243C223.434 77.7572 222.862 78.0103 222.136 78.0103H221.112V76.1329H221.765C222.136 76.1329 222.41 76.0186 222.596 75.7819C222.781 75.5452 222.942 75.186 223.088 74.6962L223.539 73.1209L220.193 63.7094H222.201L224.345 70.37L226.272 63.7094L226.28 63.7175Z" fill="#572B10"/>
<path d="M233.327 63.4808C234.326 63.4808 235.124 63.8399 235.729 64.5664C236.334 65.2929 236.632 66.2806 236.632 67.5458V70.4353C236.632 71.7005 236.334 72.6882 235.737 73.3984C235.141 74.1085 234.334 74.4677 233.327 74.4677C232.528 74.4677 231.859 74.1901 231.335 73.6269V77.8144H229.465V63.7012H230.843L230.98 64.6807C231.247 64.3379 231.585 64.0522 232.012 63.8236C232.44 63.5951 232.875 63.4808 233.318 63.4808M234.681 70.4353V67.5458C234.681 66.0438 234.125 65.2929 233.004 65.2929C232.488 65.2929 232.085 65.4806 231.787 65.8643C231.48 66.2397 231.335 66.7948 231.335 67.5294V70.4435C231.335 71.1373 231.48 71.6761 231.779 72.0679C232.077 72.4597 232.48 72.6556 233.012 72.6556C234.125 72.6556 234.689 71.9209 234.689 70.4435" fill="#572B10"/>
<path d="M241.953 63.4644C243.058 63.4644 243.888 63.7909 244.46 64.4439C245.033 65.0969 245.315 66.0356 245.315 67.2519V74.2309H243.759L243.622 73.2514C243.138 74.0758 242.372 74.4921 241.316 74.4921C240.357 74.4921 239.591 74.1983 239.002 73.6024C238.414 73.0147 238.124 72.2229 238.124 71.2434C238.124 70.1904 238.462 69.3905 239.123 68.8273C239.792 68.2722 240.711 67.9865 241.88 67.9865H243.396V67.2519C243.396 65.9622 242.896 65.3173 241.897 65.3173C241.461 65.3173 241.107 65.4398 240.824 65.6765C240.542 65.9132 240.373 66.2642 240.324 66.7131H238.414C238.47 65.701 238.809 64.9092 239.438 64.3297C240.066 63.7501 240.897 63.4644 241.937 63.4644M243.396 71.0965V69.6598H241.88C240.655 69.6598 240.05 70.1823 240.05 71.2352C240.05 71.7168 240.195 72.0923 240.486 72.3617C240.776 72.6311 241.179 72.7698 241.711 72.7698C242.243 72.7698 242.63 72.6147 242.945 72.3127C243.251 72.0025 243.404 71.6026 243.404 71.0965" fill="#572B10"/>
<path d="M246.46 74.3697V72.5168C246.944 72.5168 247.282 72.2882 247.459 71.8393C247.645 71.3904 247.782 70.6802 247.871 69.7089C248.032 67.66 248.129 65.6684 248.169 63.7256H254.216V74.231H252.329V65.4969H250.007C249.983 66.9989 249.894 68.5089 249.749 70.019C249.62 71.4965 249.29 72.5903 248.766 73.3004C248.242 74.0106 247.476 74.3697 246.46 74.3697Z" fill="#572B10"/>
<path d="M260.045 67.2682C261.044 67.2682 261.867 67.5866 262.503 68.2232C263.148 68.8599 263.471 69.6925 263.471 70.7128C263.471 71.7332 263.148 72.5902 262.503 73.2433C261.859 73.8963 261.036 74.2228 260.045 74.2228H256.497V63.7175H258.408V67.2682H260.045ZM259.851 72.4678C260.359 72.4678 260.77 72.3127 261.085 71.9862C261.391 71.6679 261.544 71.2434 261.544 70.7128C261.544 70.1823 261.391 69.7823 261.085 69.4803C260.778 69.1701 260.367 69.0232 259.851 69.0232H258.416V72.476H259.851V72.4678Z" fill="#572B10"/>
<path d="M269.655 63.7175H271.565V74.2309H269.655V69.7415H266.76V74.2309H264.85V63.7175H266.76V67.9457H269.655V63.7175Z" fill="#572B10"/>
<path d="M277.249 74.4677C276.12 74.4677 275.234 74.1248 274.581 73.431C273.927 72.7372 273.605 71.7577 273.605 70.4843V67.456C273.605 66.1826 273.927 65.1949 274.581 64.5092C275.234 63.8154 276.12 63.4726 277.249 63.4726C278.378 63.4726 279.289 63.8154 279.934 64.5092C280.587 65.2031 280.909 66.1826 280.909 67.456V70.4843C280.909 71.7577 280.587 72.7453 279.934 73.431C279.281 74.1248 278.386 74.4677 277.249 74.4677ZM277.249 72.5903C278.402 72.5903 278.982 71.8883 278.982 70.4761V67.4478C278.982 66.0357 278.402 65.3337 277.249 65.3337C276.096 65.3337 275.54 66.0357 275.54 67.4478V70.4761C275.54 71.8883 276.112 72.5903 277.249 72.5903Z" fill="#572B10"/>
<path fill-rule="evenodd" clip-rule="evenodd" d="M125.898 69.6354C125.898 70.4925 125.213 71.1781 124.375 71.1781C123.536 71.1781 122.851 70.4843 122.851 69.6354C122.851 68.7865 123.536 68.0927 124.375 68.0927C125.213 68.0927 125.898 68.7865 125.898 69.6354Z" fill="#572B10"/>
<path fill-rule="evenodd" clip-rule="evenodd" d="M190.436 69.6354C190.436 70.4925 189.751 71.1781 188.912 71.1781C188.074 71.1781 187.388 70.4843 187.388 69.6354C187.388 68.7865 188.074 68.0927 188.912 68.0927C189.751 68.0927 190.436 68.7865 190.436 69.6354Z" fill="#572B10"/>
</svg>
